<svg xmlns="http://www.w3.org/2000/svg" version="1.1" xmlns:xlink="http://www.w3.org/1999/xlink" xmlns:svgjs="http://svgjs.dev/svgjs" width="1500" height="935" viewBox="0 0 1500 935"><g transform="matrix(1,0,0,1,-0.9090909090909918,0.3785425101214628)"><svg viewBox="0 0 396 247" data-background-color="#5c0a95" preserveAspectRatio="xMidYMid meet" height="935" width="1500" xmlns="http://www.w3.org/2000/svg" xmlns:xlink="http://www.w3.org/1999/xlink"><g id="tight-bounds" transform="matrix(1,0,0,1,0.2400000000000091,-0.09999999999999432)"><svg viewBox="0 0 395.52 247.2" height="247.2" width="395.52"><g><svg></svg></g><g><svg viewBox="0 0 395.52 247.2" height="247.2" width="395.52"><g transform="matrix(1,0,0,1,158.75499574468085,47.215199999999996)"><svg viewBox="0 0 78.0100085106383 152.7696" height="152.7696" width="78.0100085106383"><g><svg viewBox="0 0 78.0100085106383 152.7696" height="152.7696" width="78.0100085106383"><g><svg viewBox="0 0 78.0100085106383 152.7696" height="152.7696" width="78.0100085106383"><g><svg viewBox="0 0 78.0100085106383 152.7696" height="152.7696" width="78.0100085106383"><g id="textblocktransform"><svg viewBox="0 0 78.0100085106383 152.7696" height="152.7696" width="78.0100085106383" id="textblock"><g><svg viewBox="0 0 78.0100085106383 152.7696" height="152.7696" width="78.0100085106383"><g transform="matrix(1,0,0,1,0,0)"><svg width="78.0100085106383" viewBox="3 -35.25 18 35.25" height="152.7696" data-palette-color="#dbee49"><path d="M21-9.35L16.45-9.35 16.45-25.9 21-25.9 21-9.35ZM11.15 0L6.2 0 6.2-3.95 11.15-3.95 11.15 0ZM11.15-31.3L6.2-31.3 6.2-35.25 11.15-35.25 11.15-31.3ZM11.15-31.3L6.2-31.3 6.2-35.25 11.15-35.25 11.15-31.3ZM21-25.9L21-25.9 16.45-25.9Q16.45-28.5 15.05-29.9 13.65-31.3 11.15-31.3L11.15-31.3 11.15-35.25Q14.05-35.25 16.28-34.08 18.5-32.9 19.75-30.78 21-28.65 21-25.9ZM16.45-9.4L21-9.4Q21-6.6 19.75-4.5 18.5-2.4 16.28-1.2 14.05 0 11.15 0L11.15 0 11.15-3.95Q13.65-3.95 15.05-5.38 16.45-6.8 16.45-9.4L16.45-9.4ZM7.55 0L3 0 3-35.25 7.55-35.25 7.55 0Z" opacity="1" transform="matrix(1,0,0,1,0,0)" fill="#dbee49" class="wordmark-text-0" data-fill-palette-color="primary" id="text-0"></path></svg></g></svg></g></svg></g></svg></g></svg></g></svg></g></svg></g><path d="M54.464 41.215L54.464 0 301.664 0 301.664 247.2 54.464 247.2 54.464 205.985 68.241 205.985 68.241 233.423 287.887 233.423 287.887 13.777 68.241 13.777 68.241 41.215Z" fill="#dbee49" stroke="transparent" data-fill-palette-color="tertiary"></path></svg></g><defs></defs></svg><rect width="395.52" height="247.2" fill="none" stroke="none" visibility="hidden"></rect></g></svg></g></svg>